<svg class="main-svg" xmlns="http://www.w3.org/2000/svg" xmlns:xlink="http://www.w3.org/1999/xlink" width="1000" height="750" style="" viewBox="0 0 1000 750"><rect x="0" y="0" width="1000" height="750" style="fill: rgb(255, 255, 255); fill-opacity: 1;"/><defs id="defs-c07d2a"><g class="clips"><clipPath id="clipc07d2axyplot" class="plotclip"><rect width="450" height="583"/></clipPath><clipPath class="axesclip" id="clipc07d2ax"><rect x="350" y="0" width="450" height="750"/></clipPath><clipPath class="axesclip" id="clipc07d2ay"><rect x="0" y="100" width="1000" height="583"/></clipPath><clipPath class="axesclip" id="clipc07d2axy"><rect x="350" y="100" width="450" height="583"/></clipPath></g><g class="gradients"/><g class="patterns"/></defs><g class="bglayer"><rect class="bg" x="350" y="100" width="450" height="583" style="fill: rgb(0, 0, 0); fill-opacity: 0; stroke-width: 0;"/></g><g class="layer-below"><g class="imagelayer"/><g class="shapelayer"/></g><g class="cartesianlayer"><g class="subplot xy"><g class="layer-subplot"><g class="shapelayer"/><g class="imagelayer"/></g><g class="minor-gridlayer"><g class="x"/><g class="y"/></g><g class="gridlayer"><g class="x"/><g class="y"><path class="ygrid crisp" transform="translate(0,117.15)" d="M350,0h450" style="stroke: rgb(238, 238, 238); stroke-opacity: 1; stroke-width: 1px;"/><path class="ygrid crisp" transform="translate(0,151.44)" d="M350,0h450" style="stroke: rgb(238, 238, 238); stroke-opacity: 1; stroke-width: 1px;"/><path class="ygrid crisp" transform="translate(0,185.74)" d="M350,0h450" style="stroke: rgb(238, 238, 238); stroke-opacity: 1; stroke-width: 1px;"/><path class="ygrid crisp" transform="translate(0,220.03)" d="M350,0h450" style="stroke: rgb(238, 238, 238); stroke-opacity: 1; stroke-width: 1px;"/><path class="ygrid crisp" transform="translate(0,254.32)" d="M350,0h450" style="stroke: rgb(238, 238, 238); stroke-opacity: 1; stroke-width: 1px;"/><path class="ygrid crisp" transform="translate(0,288.62)" d="M350,0h450" style="stroke: rgb(238, 238, 238); stroke-opacity: 1; stroke-width: 1px;"/><path class="ygrid crisp" transform="translate(0,322.90999999999997)" d="M350,0h450" style="stroke: rgb(238, 238, 238); stroke-opacity: 1; stroke-width: 1px;"/><path class="ygrid crisp" transform="translate(0,357.21)" d="M350,0h450" style="stroke: rgb(238, 238, 238); stroke-opacity: 1; stroke-width: 1px;"/><path class="ygrid crisp" transform="translate(0,391.5)" d="M350,0h450" style="stroke: rgb(238, 238, 238); stroke-opacity: 1; stroke-width: 1px;"/><path class="ygrid crisp" transform="translate(0,425.79)" d="M350,0h450" style="stroke: rgb(238, 238, 238); stroke-opacity: 1; stroke-width: 1px;"/><path class="ygrid crisp" transform="translate(0,460.09)" d="M350,0h450" style="stroke: rgb(238, 238, 238); stroke-opacity: 1; stroke-width: 1px;"/><path class="ygrid crisp" transform="translate(0,494.38)" d="M350,0h450" style="stroke: rgb(238, 238, 238); stroke-opacity: 1; stroke-width: 1px;"/><path class="ygrid crisp" transform="translate(0,528.6800000000001)" d="M350,0h450" style="stroke: rgb(238, 238, 238); stroke-opacity: 1; stroke-width: 1px;"/><path class="ygrid crisp" transform="translate(0,562.97)" d="M350,0h450" style="stroke: rgb(238, 238, 238); stroke-opacity: 1; stroke-width: 1px;"/><path class="ygrid crisp" transform="translate(0,597.26)" d="M350,0h450" style="stroke: rgb(238, 238, 238); stroke-opacity: 1; stroke-width: 1px;"/><path class="ygrid crisp" transform="translate(0,631.56)" d="M350,0h450" style="stroke: rgb(238, 238, 238); stroke-opacity: 1; stroke-width: 1px;"/><path class="ygrid crisp" transform="translate(0,665.85)" d="M350,0h450" style="stroke: rgb(238, 238, 238); stroke-opacity: 1; stroke-width: 1px;"/></g></g><g class="zerolinelayer"/><g class="layer-between"><g class="shapelayer"/><g class="imagelayer"/></g><path class="xlines-below"/><path class="ylines-below"/><g class="overlines-below"/><g class="xaxislayer-below"/><g class="yaxislayer-below"/><g class="overaxes-below"/><g class="overplot"><g class="xy" transform="translate(350,100)" clip-path="url(#clipc07d2axyplot)"><g class="scatterlayer mlayer"><g class="trace scatter trace23ba72" style="stroke-miterlimit: 2; opacity: 1;"><g class="fills"/><g class="errorbars"><g class="errorbar" style="opacity: 1;"><path class="xerror" d="M427.5,11.149999999999999v12m0,-6H348.99m0,-6v12" style="vector-effect: none; stroke-width: 1.5px; stroke: rgb(34, 34, 34); stroke-opacity: 1;"/></g><g class="errorbar" style="opacity: 1;"><path class="xerror" d="M289.18,45.44v12m0,-6H238.01m0,-6v12" style="vector-effect: none; stroke-width: 1.5px; stroke: rgb(34, 34, 34); stroke-opacity: 1;"/></g><g class="errorbar" style="opacity: 1;"><path class="xerror" d="M168.88,79.74v12m0,-6H22.5m0,-6v12" style="vector-effect: none; stroke-width: 1.5px; stroke: rgb(34, 34, 34); stroke-opacity: 1;"/></g><g class="errorbar" style="opacity: 1;"><path class="xerror" d="M230.28,114.03v12m0,-6H158.9m0,-6v12" style="vector-effect: none; stroke-width: 1.5px; stroke: rgb(34, 34, 34); stroke-opacity: 1;"/></g><g class="errorbar" style="opacity: 1;"><path class="xerror" d="M269.28,148.32v12m0,-6H203.54m0,-6v12" style="vector-effect: none; stroke-width: 1.5px; stroke: rgb(34, 34, 34); stroke-opacity: 1;"/></g><g class="errorbar" style="opacity: 1;"><path class="xerror" d="M256.08,182.62v12m0,-6H191.53m0,-6v12" style="vector-effect: none; stroke-width: 1.5px; stroke: rgb(34, 34, 34); stroke-opacity: 1;"/></g><g class="errorbar" style="opacity: 1;"><path class="xerror" d="M176.75,216.91v12m0,-6H112.14m0,-6v12" style="vector-effect: none; stroke-width: 1.5px; stroke: rgb(34, 34, 34); stroke-opacity: 1;"/></g><g class="errorbar" style="opacity: 1;"><path class="xerror" d="M198.41,251.20999999999998v12m0,-6H69.36m0,-6v12" style="vector-effect: none; stroke-width: 1.5px; stroke: rgb(34, 34, 34); stroke-opacity: 1;"/></g><g class="errorbar" style="opacity: 1;"><path class="xerror" d="M199.56,285.5v12m0,-6H61.08m0,-6v12" style="vector-effect: none; stroke-width: 1.5px; stroke: rgb(34, 34, 34); stroke-opacity: 1;"/></g><g class="errorbar" style="opacity: 1;"><path class="xerror" d="M241.21,319.79v12m0,-6H30.82m0,-6v12" style="vector-effect: none; stroke-width: 1.5px; stroke: rgb(34, 34, 34); stroke-opacity: 1;"/></g><g class="errorbar" style="opacity: 1;"><path class="xerror" d="M244.87,354.09v12m0,-6H67.56m0,-6v12" style="vector-effect: none; stroke-width: 1.5px; stroke: rgb(34, 34, 34); stroke-opacity: 1;"/></g><g class="errorbar" style="opacity: 1;"><path class="xerror" d="M201.73,388.38v12m0,-6H120.89m0,-6v12" style="vector-effect: none; stroke-width: 1.5px; stroke: rgb(34, 34, 34); stroke-opacity: 1;"/></g><g class="errorbar" style="opacity: 1;"><path class="xerror" d="M292.87,422.68v12m0,-6H181.5m0,-6v12" style="vector-effect: none; stroke-width: 1.5px; stroke: rgb(34, 34, 34); stroke-opacity: 1;"/></g><g class="errorbar" style="opacity: 1;"><path class="xerror" d="M216.34,456.97v12m0,-6H81.81m0,-6v12" style="vector-effect: none; stroke-width: 1.5px; stroke: rgb(34, 34, 34); stroke-opacity: 1;"/></g><g class="errorbar" style="opacity: 1;"><path class="xerror" d="M189.92,491.26v12m0,-6H116.36m0,-6v12" style="vector-effect: none; stroke-width: 1.5px; stroke: rgb(34, 34, 34); stroke-opacity: 1;"/></g><g class="errorbar" style="opacity: 1;"><path class="xerror" d="M276.43,525.56v12m0,-6H126.46m0,-6v12" style="vector-effect: none; stroke-width: 1.5px; stroke: rgb(34, 34, 34); stroke-opacity: 1;"/></g><g class="errorbar" style="opacity: 1;"><path class="xerror" d="M149.25,559.85v12m0,-6H55.72m0,-6v12" style="vector-effect: none; stroke-width: 1.5px; stroke: rgb(34, 34, 34); stroke-opacity: 1;"/></g></g><g class="lines"/><g class="points"><path class="point plotly-customdata" transform="translate(388.25,17.15)" d="M5,0A5,5 0 1,1 0,-5A5,5 0 0,1 5,0Z" style="opacity: 1; stroke-width: 0px; fill: rgb(34, 34, 34); fill-opacity: 1;"/><path class="point plotly-customdata" transform="translate(263.6,51.44)" d="M5,0A5,5 0 1,1 0,-5A5,5 0 0,1 5,0Z" style="opacity: 1; stroke-width: 0px; fill: rgb(34, 34, 34); fill-opacity: 1;"/><path class="point plotly-customdata" transform="translate(95.69,85.74)" d="M5,0A5,5 0 1,1 0,-5A5,5 0 0,1 5,0Z" style="opacity: 1; stroke-width: 0px; fill: rgb(34, 34, 34); fill-opacity: 1;"/><path class="point plotly-customdata" transform="translate(194.59,120.03)" d="M5,0A5,5 0 1,1 0,-5A5,5 0 0,1 5,0Z" style="opacity: 1; stroke-width: 0px; fill: rgb(34, 34, 34); fill-opacity: 1;"/><path class="point plotly-customdata" transform="translate(236.41,154.32)" d="M5,0A5,5 0 1,1 0,-5A5,5 0 0,1 5,0Z" style="opacity: 1; stroke-width: 0px; fill: rgb(34, 34, 34); fill-opacity: 1;"/><path class="point plotly-customdata" transform="translate(223.81,188.62)" d="M5,0A5,5 0 1,1 0,-5A5,5 0 0,1 5,0Z" style="opacity: 1; stroke-width: 0px; fill: rgb(34, 34, 34); fill-opacity: 1;"/><path class="point plotly-customdata" transform="translate(144.44,222.91)" d="M5,0A5,5 0 1,1 0,-5A5,5 0 0,1 5,0Z" style="opacity: 1; stroke-width: 0px; fill: rgb(34, 34, 34); fill-opacity: 1;"/><path class="point plotly-customdata" transform="translate(133.88,257.21)" d="M5,0A5,5 0 1,1 0,-5A5,5 0 0,1 5,0Z" style="opacity: 1; stroke-width: 0px; fill: rgb(34, 34, 34); fill-opacity: 1;"/><path class="point plotly-customdata" transform="translate(130.32,291.5)" d="M5,0A5,5 0 1,1 0,-5A5,5 0 0,1 5,0Z" style="opacity: 1; stroke-width: 0px; fill: rgb(34, 34, 34); fill-opacity: 1;"/><path class="point plotly-customdata" transform="translate(136.01,325.79)" d="M5,0A5,5 0 1,1 0,-5A5,5 0 0,1 5,0Z" style="opacity: 1; stroke-width: 0px; fill: rgb(34, 34, 34); fill-opacity: 1;"/><path class="point plotly-customdata" transform="translate(156.22,360.09)" d="M5,0A5,5 0 1,1 0,-5A5,5 0 0,1 5,0Z" style="opacity: 1; stroke-width: 0px; fill: rgb(34, 34, 34); fill-opacity: 1;"/><path class="point plotly-customdata" transform="translate(161.31,394.38)" d="M5,0A5,5 0 1,1 0,-5A5,5 0 0,1 5,0Z" style="opacity: 1; stroke-width: 0px; fill: rgb(34, 34, 34); fill-opacity: 1;"/><path class="point plotly-customdata" transform="translate(237.18,428.68)" d="M5,0A5,5 0 1,1 0,-5A5,5 0 0,1 5,0Z" style="opacity: 1; stroke-width: 0px; fill: rgb(34, 34, 34); fill-opacity: 1;"/><path class="point plotly-customdata" transform="translate(149.08,462.97)" d="M5,0A5,5 0 1,1 0,-5A5,5 0 0,1 5,0Z" style="opacity: 1; stroke-width: 0px; fill: rgb(34, 34, 34); fill-opacity: 1;"/><path class="point plotly-customdata" transform="translate(153.14,497.26)" d="M5,0A5,5 0 1,1 0,-5A5,5 0 0,1 5,0Z" style="opacity: 1; stroke-width: 0px; fill: rgb(34, 34, 34); fill-opacity: 1;"/><path class="point plotly-customdata" transform="translate(201.44,531.56)" d="M5,0A5,5 0 1,1 0,-5A5,5 0 0,1 5,0Z" style="opacity: 1; stroke-width: 0px; fill: rgb(34, 34, 34); fill-opacity: 1;"/><path class="point plotly-customdata" transform="translate(102.49,565.85)" d="M5,0A5,5 0 1,1 0,-5A5,5 0 0,1 5,0Z" style="opacity: 1; stroke-width: 0px; fill: rgb(34, 34, 34); fill-opacity: 1;"/></g><g class="text"/></g></g></g></g><g class="zerolinelayer-above"/><path class="xlines-above crisp" d="M349,683.5H800" style="fill: none; stroke-width: 1px; stroke: rgb(0, 0, 0); stroke-opacity: 1;"/><path class="ylines-above crisp" d="M349.5,100V683" style="fill: none; stroke-width: 1px; stroke: rgb(0, 0, 0); stroke-opacity: 1;"/><g class="overlines-above"/><g class="xaxislayer-above"><path class="xtick ticks crisp" d="M0,684v5" transform="translate(427.2,0)" style="stroke: rgb(0, 0, 0); stroke-opacity: 1; stroke-width: 1px;"/><path class="xtick ticks crisp" d="M0,684v5" transform="translate(527.58,0)" style="stroke: rgb(0, 0, 0); stroke-opacity: 1; stroke-width: 1px;"/><path class="xtick ticks crisp" d="M0,684v5" transform="translate(627.96,0)" style="stroke: rgb(0, 0, 0); stroke-opacity: 1; stroke-width: 1px;"/><path class="xtick ticks crisp" d="M0,684v5" transform="translate(728.3399999999999,0)" style="stroke: rgb(0, 0, 0); stroke-opacity: 1; stroke-width: 1px;"/><g class="xtick"><text text-anchor="middle" x="0" y="707" transform="translate(427.2,0)" style="font-family: 'Open Sans', verdana, arial, sans-serif; font-size: 15px; fill: rgb(42, 63, 95); fill-opacity: 1; white-space: pre;">0.5</text></g><g class="xtick"><text text-anchor="middle" x="0" y="707" style="font-family: 'Open Sans', verdana, arial, sans-serif; font-size: 15px; fill: rgb(42, 63, 95); fill-opacity: 1; white-space: pre;" transform="translate(527.58,0)">1</text></g><g class="xtick"><text text-anchor="middle" x="0" y="707" style="font-family: 'Open Sans', verdana, arial, sans-serif; font-size: 15px; fill: rgb(42, 63, 95); fill-opacity: 1; white-space: pre;" transform="translate(627.96,0)">2</text></g><g class="xtick"><text text-anchor="middle" x="0" y="707" style="font-family: 'Open Sans', verdana, arial, sans-serif; font-size: 15px; fill: rgb(42, 63, 95); fill-opacity: 1; white-space: pre;" transform="translate(728.3399999999999,0)">4</text></g></g><g class="yaxislayer-above"><g class="ytick"><text text-anchor="end" x="346" y="5.25" transform="translate(0,117.15)" style="font-family: 'Open Sans', verdana, arial, sans-serif; font-size: 15px; fill: rgb(42, 63, 95); fill-opacity: 1; white-space: pre;">Has website</text></g><g class="ytick"><text text-anchor="end" x="346" y="5.25" style="font-family: 'Open Sans', verdana, arial, sans-serif; font-size: 15px; fill: rgb(42, 63, 95); fill-opacity: 1; white-space: pre;" transform="translate(0,151.44)">10× more reviews</text></g><g class="ytick"><text text-anchor="end" x="346" y="5.25" style="font-family: 'Open Sans', verdana, arial, sans-serif; font-size: 15px; fill: rgb(42, 63, 95); fill-opacity: 1; white-space: pre;" transform="translate(0,185.74)">No reviews</text></g><g class="ytick"><text text-anchor="end" x="346" y="5.25" style="font-family: 'Open Sans', verdana, arial, sans-serif; font-size: 15px; fill: rgb(42, 63, 95); fill-opacity: 1; white-space: pre;" transform="translate(0,220.03)">Takeout</text></g><g class="ytick"><text text-anchor="end" x="346" y="5.25" style="font-family: 'Open Sans', verdana, arial, sans-serif; font-size: 15px; fill: rgb(42, 63, 95); fill-opacity: 1; white-space: pre;" transform="translate(0,254.32)">Delivery</text></g><g class="ytick"><text text-anchor="end" x="346" y="5.25" style="font-family: 'Open Sans', verdana, arial, sans-serif; font-size: 15px; fill: rgb(42, 63, 95); fill-opacity: 1; white-space: pre;" transform="translate(0,288.62)">Reservations</text></g><g class="ytick"><text text-anchor="end" x="346" y="5.25" style="font-family: 'Open Sans', verdana, arial, sans-serif; font-size: 15px; fill: rgb(42, 63, 95); fill-opacity: 1; white-space: pre;" transform="translate(0,322.90999999999997)">Only generic tags</text></g><g class="ytick"><text text-anchor="end" x="346" y="5.25" style="font-family: 'Open Sans', verdana, arial, sans-serif; font-size: 15px; fill: rgb(42, 63, 95); fill-opacity: 1; white-space: pre;" transform="translate(0,357.21)">Bar / pub</text></g><g class="ytick"><text text-anchor="end" x="346" y="5.25" style="font-family: 'Open Sans', verdana, arial, sans-serif; font-size: 15px; fill: rgb(42, 63, 95); fill-opacity: 1; white-space: pre;" transform="translate(0,391.5)">Cafe</text></g><g class="ytick"><text text-anchor="end" x="346" y="5.25" style="font-family: 'Open Sans', verdana, arial, sans-serif; font-size: 15px; fill: rgb(42, 63, 95); fill-opacity: 1; white-space: pre;" transform="translate(0,425.79)">Bakery / sweets</text></g><g class="ytick"><text text-anchor="end" x="346" y="5.25" style="font-family: 'Open Sans', verdana, arial, sans-serif; font-size: 15px; fill: rgb(42, 63, 95); fill-opacity: 1; white-space: pre;" transform="translate(0,460.09)">Quick food</text></g><g class="ytick"><text text-anchor="end" x="346" y="5.25" style="font-family: 'Open Sans', verdana, arial, sans-serif; font-size: 15px; fill: rgb(42, 63, 95); fill-opacity: 1; white-space: pre;" transform="translate(0,494.38)">Pizza</text></g><g class="ytick"><text text-anchor="end" x="346" y="5.25" style="font-family: 'Open Sans', verdana, arial, sans-serif; font-size: 15px; fill: rgb(42, 63, 95); fill-opacity: 1; white-space: pre;" transform="translate(0,528.6800000000001)">Burger / american</text></g><g class="ytick"><text text-anchor="end" x="346" y="5.25" style="font-family: 'Open Sans', verdana, arial, sans-serif; font-size: 15px; fill: rgb(42, 63, 95); fill-opacity: 1; white-space: pre;" transform="translate(0,562.97)">Kebab / halal</text></g><g class="ytick"><text text-anchor="end" x="346" y="5.25" style="font-family: 'Open Sans', verdana, arial, sans-serif; font-size: 15px; fill: rgb(42, 63, 95); fill-opacity: 1; white-space: pre;" transform="translate(0,597.26)">Inexpensive</text></g><g class="ytick"><text text-anchor="end" x="346" y="5.25" style="font-family: 'Open Sans', verdana, arial, sans-serif; font-size: 15px; fill: rgb(42, 63, 95); fill-opacity: 1; white-space: pre;" transform="translate(0,631.56)">Expensive</text></g><g class="ytick"><text text-anchor="end" x="346" y="5.25" style="font-family: 'Open Sans', verdana, arial, sans-serif; font-size: 15px; fill: rgb(42, 63, 95); fill-opacity: 1; white-space: pre;" transform="translate(0,665.85)">Unknown</text></g></g><g class="overaxes-above"/></g></g><g class="polarlayer"/><g class="smithlayer"/><g class="ternarylayer"/><g class="geolayer"/><g class="funnelarealayer"/><g class="pielayer"/><g class="iciclelayer"/><g class="treemaplayer"/><g class="sunburstlayer"/><g class="glimages"/><defs id="topdefs-c07d2a"><g class="clips"/></defs><g class="layer-above"><g class="imagelayer"/><g class="shapelayer"><g class="shape-group" data-index="0" clip-path="url(#clipc07d2ay)"><path data-index="0" fill-rule="evenodd" d="M 197 137.72 L 190 137.72 L 190 199.45 L 197 199.45" style="opacity: 1; stroke: rgb(68, 68, 68); stroke-opacity: 1; fill: rgb(0, 0, 0); fill-opacity: 0; stroke-width: 1px;"/></g><g class="shape-group" data-index="1" clip-path="url(#clipc07d2ay)"><path data-index="1" fill-rule="evenodd" d="M 197 206.31 L 190 206.31 L 190 302.34000000000003 L 197 302.34000000000003" style="opacity: 1; stroke: rgb(68, 68, 68); stroke-opacity: 1; fill: rgb(0, 0, 0); fill-opacity: 0; stroke-width: 1px;"/></g><g class="shape-group" data-index="2" clip-path="url(#clipc07d2ay)"><path data-index="2" fill-rule="evenodd" d="M 197 309.19 L 190 309.19 L 190 576.69 L 197 576.69" style="opacity: 1; stroke: rgb(68, 68, 68); stroke-opacity: 1; fill: rgb(0, 0, 0); fill-opacity: 0; stroke-width: 1px;"/></g><g class="shape-group" data-index="3" clip-path="url(#clipc07d2ay)"><path data-index="3" fill-rule="evenodd" d="M 197 583.55 L 190 583.55 L 190 679.57 L 197 679.57" style="opacity: 1; stroke: rgb(68, 68, 68); stroke-opacity: 1; fill: rgb(0, 0, 0); fill-opacity: 0; stroke-width: 1px;"/></g><g class="shape-group" data-index="4" clip-path="url(#clipc07d2ax)"><path data-index="4" fill-rule="evenodd" d="M527.58,683L527.58,100" style="opacity: 1; stroke: rgb(34, 34, 34); stroke-opacity: 1; fill: rgb(0, 0, 0); fill-opacity: 0; stroke-dasharray: 3px, 3px; stroke-width: 1px;"/></g></g></g><g class="infolayer"><g class="g-gtitle"><text class="gtitle" x="50" y="50" text-anchor="start" dy="0em" style="opacity: 1; font-family: 'Open Sans', verdana, arial, sans-serif; font-size: 21px; fill: rgb(42, 63, 95); fill-opacity: 1; white-space: pre;"><tspan class="line" dy="0em" x="50" y="50"><tspan style="font-weight:bold">What makes a menu easy to find?</tspan></tspan><tspan class="line" dy="1.3em" x="50" y="50">​<tspan style="font-size:70%" dy="-0.6em">outcome: both models found a menu · n = 3,125 restaurants</tspan><tspan dy="0.42em">​</tspan></tspan></text></g><g class="g-xtitle"><text class="xtitle" x="575" y="737.1" text-anchor="middle" style="opacity: 1; font-family: 'Open Sans', verdana, arial, sans-serif; font-size: 18px; fill: rgb(42, 63, 95); fill-opacity: 1; white-space: pre;">Odds ratio (log scale)</text></g><g class="g-ytitle"/><g class="annotation" data-index="0" style="opacity: 1;"><g class="annotation-text-g" transform="rotate(0,875,117.15)"><g class="cursor-pointer" transform="translate(809,107)"><rect class="bg" x="0.5" y="0.5" width="131" height="20" style="stroke-width: 1px; stroke: rgb(0, 0, 0); stroke-opacity: 0; fill: rgb(0, 0, 0); fill-opacity: 0;"/><text class="annotation-text" text-anchor="middle" x="65.984375" y="16" style="font-family: 'Open Sans', verdana, arial, sans-serif; font-size: 14px; fill: rgb(34, 34, 34); fill-opacity: 1; white-space: pre;">4.28  (3.27, 5.62)</text></g></g></g><g class="annotation" data-index="1" style="opacity: 1;"><g class="annotation-text-g" transform="rotate(0,875,151.44)"><g class="cursor-pointer" transform="translate(809,141)"><rect class="bg" x="0.5" y="0.5" width="131" height="20" style="stroke-width: 1px; stroke: rgb(0, 0, 0); stroke-opacity: 0; fill: rgb(0, 0, 0); fill-opacity: 0;"/><text class="annotation-text" text-anchor="middle" x="65.984375" y="16" style="font-family: 'Open Sans', verdana, arial, sans-serif; font-size: 14px; fill: rgb(34, 34, 34); fill-opacity: 1; white-space: pre;">1.81  (1.52, 2.16)</text></g></g></g><g class="annotation" data-index="2" style="opacity: 1;"><g class="annotation-text-g" transform="rotate(0,875,185.74)"><g class="cursor-pointer" transform="translate(809,175)"><rect class="bg" x="0.5" y="0.5" width="131" height="20" style="stroke-width: 1px; stroke: rgb(0, 0, 0); stroke-opacity: 0; fill: rgb(0, 0, 0); fill-opacity: 0;"/><text class="annotation-text" text-anchor="middle" x="65.984375" y="16" style="font-family: 'Open Sans', verdana, arial, sans-serif; font-size: 14px; fill: rgb(34, 34, 34); fill-opacity: 1; white-space: pre;">0.57  (0.34, 0.94)</text></g></g></g><g class="annotation" data-index="3" style="opacity: 1;"><g class="annotation-text-g" transform="rotate(0,875,220.03)"><g class="cursor-pointer" transform="translate(809,210)"><rect class="bg" x="0.5" y="0.5" width="131" height="20" style="stroke-width: 1px; stroke: rgb(0, 0, 0); stroke-opacity: 0; fill: rgb(0, 0, 0); fill-opacity: 0;"/><text class="annotation-text" text-anchor="middle" x="65.984375" y="16" style="font-family: 'Open Sans', verdana, arial, sans-serif; font-size: 14px; fill: rgb(34, 34, 34); fill-opacity: 1; white-space: pre;">1.12  (0.88, 1.44)</text></g></g></g><g class="annotation" data-index="4" style="opacity: 1;"><g class="annotation-text-g" transform="rotate(0,875,254.32)"><g class="cursor-pointer" transform="translate(809,244)"><rect class="bg" x="0.5" y="0.5" width="131" height="20" style="stroke-width: 1px; stroke: rgb(0, 0, 0); stroke-opacity: 0; fill: rgb(0, 0, 0); fill-opacity: 0;"/><text class="annotation-text" text-anchor="middle" x="65.984375" y="16" style="font-family: 'Open Sans', verdana, arial, sans-serif; font-size: 14px; fill: rgb(34, 34, 34); fill-opacity: 1; white-space: pre;">1.50  (1.20, 1.88)</text></g></g></g><g class="annotation" data-index="5" style="opacity: 1;"><g class="annotation-text-g" transform="rotate(0,875,288.62)"><g class="cursor-pointer" transform="translate(809,278)"><rect class="bg" x="0.5" y="0.5" width="131" height="20" style="stroke-width: 1px; stroke: rgb(0, 0, 0); stroke-opacity: 0; fill: rgb(0, 0, 0); fill-opacity: 0;"/><text class="annotation-text" text-anchor="middle" x="65.984375" y="16" style="font-family: 'Open Sans', verdana, arial, sans-serif; font-size: 14px; fill: rgb(34, 34, 34); fill-opacity: 1; white-space: pre;">1.38  (1.10, 1.72)</text></g></g></g><g class="annotation" data-index="6" style="opacity: 1;"><g class="annotation-text-g" transform="rotate(0,875,322.90999999999997)"><g class="cursor-pointer" transform="translate(809,312)"><rect class="bg" x="0.5" y="0.5" width="131" height="20" style="stroke-width: 1px; stroke: rgb(0, 0, 0); stroke-opacity: 0; fill: rgb(0, 0, 0); fill-opacity: 0;"/><text class="annotation-text" text-anchor="middle" x="65.984375" y="16" style="font-family: 'Open Sans', verdana, arial, sans-serif; font-size: 14px; fill: rgb(34, 34, 34); fill-opacity: 1; white-space: pre;">0.80  (0.64, 0.99)</text></g></g></g><g class="annotation" data-index="7" style="opacity: 1;"><g class="annotation-text-g" transform="rotate(0,875,357.21)"><g class="cursor-pointer" transform="translate(809,347)"><rect class="bg" x="0.5" y="0.5" width="131" height="20" style="stroke-width: 1px; stroke: rgb(0, 0, 0); stroke-opacity: 0; fill: rgb(0, 0, 0); fill-opacity: 0;"/><text class="annotation-text" text-anchor="middle" x="65.984375" y="16" style="font-family: 'Open Sans', verdana, arial, sans-serif; font-size: 14px; fill: rgb(34, 34, 34); fill-opacity: 1; white-space: pre;">0.74  (0.47, 1.15)</text></g></g></g><g class="annotation" data-index="8" style="opacity: 1;"><g class="annotation-text-g" transform="rotate(0,875,391.5)"><g class="cursor-pointer" transform="translate(809,381)"><rect class="bg" x="0.5" y="0.5" width="131" height="20" style="stroke-width: 1px; stroke: rgb(0, 0, 0); stroke-opacity: 0; fill: rgb(0, 0, 0); fill-opacity: 0;"/><text class="annotation-text" text-anchor="middle" x="65.984375" y="16" style="font-family: 'Open Sans', verdana, arial, sans-serif; font-size: 14px; fill: rgb(34, 34, 34); fill-opacity: 1; white-space: pre;">0.72  (0.45, 1.16)</text></g></g></g><g class="annotation" data-index="9" style="opacity: 1;"><g class="annotation-text-g" transform="rotate(0,875,425.79)"><g class="cursor-pointer" transform="translate(809,415)"><rect class="bg" x="0.5" y="0.5" width="131" height="20" style="stroke-width: 1px; stroke: rgb(0, 0, 0); stroke-opacity: 0; fill: rgb(0, 0, 0); fill-opacity: 0;"/><text class="annotation-text" text-anchor="middle" x="65.984375" y="16" style="font-family: 'Open Sans', verdana, arial, sans-serif; font-size: 14px; fill: rgb(34, 34, 34); fill-opacity: 1; white-space: pre;">0.75  (0.36, 1.55)</text></g></g></g><g class="annotation" data-index="10" style="opacity: 1;"><g class="annotation-text-g" transform="rotate(0,875,460.09)"><g class="cursor-pointer" transform="translate(809,450)"><rect class="bg" x="0.5" y="0.5" width="131" height="20" style="stroke-width: 1px; stroke: rgb(0, 0, 0); stroke-opacity: 0; fill: rgb(0, 0, 0); fill-opacity: 0;"/><text class="annotation-text" text-anchor="middle" x="65.984375" y="16" style="font-family: 'Open Sans', verdana, arial, sans-serif; font-size: 14px; fill: rgb(34, 34, 34); fill-opacity: 1; white-space: pre;">0.86  (0.47, 1.59)</text></g></g></g><g class="annotation" data-index="11" style="opacity: 1;"><g class="annotation-text-g" transform="rotate(0,875,494.38)"><g class="cursor-pointer" transform="translate(809,484)"><rect class="bg" x="0.5" y="0.5" width="131" height="20" style="stroke-width: 1px; stroke: rgb(0, 0, 0); stroke-opacity: 0; fill: rgb(0, 0, 0); fill-opacity: 0;"/><text class="annotation-text" text-anchor="middle" x="65.984375" y="16" style="font-family: 'Open Sans', verdana, arial, sans-serif; font-size: 14px; fill: rgb(34, 34, 34); fill-opacity: 1; white-space: pre;">0.89  (0.68, 1.18)</text></g></g></g><g class="annotation" data-index="12" style="opacity: 1;"><g class="annotation-text-g" transform="rotate(0,875,528.6800000000001)"><g class="cursor-pointer" transform="translate(809,518)"><rect class="bg" x="0.5" y="0.5" width="131" height="20" style="stroke-width: 1px; stroke: rgb(0, 0, 0); stroke-opacity: 0; fill: rgb(0, 0, 0); fill-opacity: 0;"/><text class="annotation-text" text-anchor="middle" x="65.984375" y="16" style="font-family: 'Open Sans', verdana, arial, sans-serif; font-size: 14px; fill: rgb(34, 34, 34); fill-opacity: 1; white-space: pre;">1.51  (1.03, 2.22)</text></g></g></g><g class="annotation" data-index="13" style="opacity: 1;"><g class="annotation-text-g" transform="rotate(0,875,562.97)"><g class="cursor-pointer" transform="translate(809,552)"><rect class="bg" x="0.5" y="0.5" width="131" height="20" style="stroke-width: 1px; stroke: rgb(0, 0, 0); stroke-opacity: 0; fill: rgb(0, 0, 0); fill-opacity: 0;"/><text class="annotation-text" text-anchor="middle" x="65.984375" y="16" style="font-family: 'Open Sans', verdana, arial, sans-serif; font-size: 14px; fill: rgb(34, 34, 34); fill-opacity: 1; white-space: pre;">0.82  (0.52, 1.31)</text></g></g></g><g class="annotation" data-index="14" style="opacity: 1;"><g class="annotation-text-g" transform="rotate(0,875,597.26)"><g class="cursor-pointer" transform="translate(809,587)"><rect class="bg" x="0.5" y="0.5" width="131" height="20" style="stroke-width: 1px; stroke: rgb(0, 0, 0); stroke-opacity: 0; fill: rgb(0, 0, 0); fill-opacity: 0;"/><text class="annotation-text" text-anchor="middle" x="65.984375" y="16" style="font-family: 'Open Sans', verdana, arial, sans-serif; font-size: 14px; fill: rgb(34, 34, 34); fill-opacity: 1; white-space: pre;">0.84  (0.66, 1.09)</text></g></g></g><g class="annotation" data-index="15" style="opacity: 1;"><g class="annotation-text-g" transform="rotate(0,875,631.56)"><g class="cursor-pointer" transform="translate(809,621)"><rect class="bg" x="0.5" y="0.5" width="131" height="20" style="stroke-width: 1px; stroke: rgb(0, 0, 0); stroke-opacity: 0; fill: rgb(0, 0, 0); fill-opacity: 0;"/><text class="annotation-text" text-anchor="middle" x="65.984375" y="16" style="font-family: 'Open Sans', verdana, arial, sans-serif; font-size: 14px; fill: rgb(34, 34, 34); fill-opacity: 1; white-space: pre;">1.18  (0.70, 1.98)</text></g></g></g><g class="annotation" data-index="16" style="opacity: 1;"><g class="annotation-text-g" transform="rotate(0,875,665.85)"><g class="cursor-pointer" transform="translate(809,655)"><rect class="bg" x="0.5" y="0.5" width="131" height="20" style="stroke-width: 1px; stroke: rgb(0, 0, 0); stroke-opacity: 0; fill: rgb(0, 0, 0); fill-opacity: 0;"/><text class="annotation-text" text-anchor="middle" x="65.984375" y="16" style="font-family: 'Open Sans', verdana, arial, sans-serif; font-size: 14px; fill: rgb(34, 34, 34); fill-opacity: 1; white-space: pre;">0.60  (0.43, 0.82)</text></g></g></g><g class="annotation" data-index="17" style="opacity: 1;"><g class="annotation-text-g" transform="rotate(0,865,89.5)"><g class="cursor-pointer" transform="translate(809,79)"><rect class="bg" x="0.5" y="0.5" width="111" height="20" style="stroke-width: 1px; stroke: rgb(0, 0, 0); stroke-opacity: 0; fill: rgb(0, 0, 0); fill-opacity: 0;"/><text class="annotation-text" text-anchor="middle" x="55.9609375" y="16" style="font-family: 'Open Sans', verdana, arial, sans-serif; font-size: 14px; fill: rgb(42, 63, 95); fill-opacity: 1; white-space: pre;"><tspan style="font-weight:bold">OR  (95% CI)</tspan></text></g></g></g><g class="annotation" data-index="18" style="opacity: 1;"><g class="annotation-text-g" transform="rotate(0,152.5,168.59)"><g class="cursor-pointer" transform="translate(120,158)"><rect class="bg" x="0.5" y="0.5" width="64" height="21" style="stroke-width: 1px; stroke: rgb(0, 0, 0); stroke-opacity: 0; fill: rgb(0, 0, 0); fill-opacity: 0;"/><text class="annotation-text" text-anchor="middle" x="32.515625" y="17" style="font-family: 'Open Sans', verdana, arial, sans-serif; font-size: 15px; fill: rgb(68, 68, 68); fill-opacity: 1; white-space: pre;">Reviews</text></g></g></g><g class="annotation" data-index="19" style="opacity: 1;"><g class="annotation-text-g" transform="rotate(0,151.5,254.32)"><g class="cursor-pointer" transform="translate(118,243)"><rect class="bg" x="0.5" y="0.5" width="66" height="21" style="stroke-width: 1px; stroke: rgb(0, 0, 0); stroke-opacity: 0; fill: rgb(0, 0, 0); fill-opacity: 0;"/><text class="annotation-text" text-anchor="middle" x="33.578125" y="17" style="font-family: 'Open Sans', verdana, arial, sans-serif; font-size: 15px; fill: rgb(68, 68, 68); fill-opacity: 1; white-space: pre;">Services</text></g></g></g><g class="annotation" data-index="20" style="opacity: 1;"><g class="annotation-text-g" transform="rotate(0,138,442.94)"><g class="cursor-pointer" transform="translate(91,432)"><rect class="bg" x="0.5" y="0.5" width="93" height="21" style="stroke-width: 1px; stroke: rgb(0, 0, 0); stroke-opacity: 0; fill: rgb(0, 0, 0); fill-opacity: 0;"/><text class="annotation-text" text-anchor="middle" x="46.796875" y="17" style="font-family: 'Open Sans', verdana, arial, sans-serif; font-size: 15px; fill: rgb(68, 68, 68); fill-opacity: 1; white-space: pre;">Google tags</text></g></g></g><g class="annotation" data-index="21" style="opacity: 1;"><g class="annotation-text-g" transform="rotate(0,105.5,631.56)"><g class="cursor-pointer" transform="translate(26,621)"><rect class="bg" x="0.5" y="0.5" width="158" height="21" style="stroke-width: 1px; stroke: rgb(0, 0, 0); stroke-opacity: 0; fill: rgb(0, 0, 0); fill-opacity: 0;"/><text class="annotation-text" text-anchor="middle" x="79.3046875" y="17" style="font-family: 'Open Sans', verdana, arial, sans-serif; font-size: 15px; fill: rgb(68, 68, 68); fill-opacity: 1; white-space: pre;">Price (vs. moderate)</text></g></g></g></g></svg>